# xmcd
#
# Track frame offsets:
#	225
#	15157
#	30909
#	45781
#	59854
#	74631
#	88905
#	103017
#	117411
#	132042
#	146554
#	161263
#	175983
#	180755
#	185523
#	190295
#	195132
#	199934
#	204731
#	209511
#	214288
#	219129
#	223927
#	228728
#	233516
#	236042
#	238588
#	241110
#	243696
#	246238
#	248788
#	251316
#	253858
#	256367
#	258904
#	261442
#	263993
#	265412
#	266857
#	268214
#	269681
#	271067
#	272488
#	273876
#	275324
#	276687
#	278097
#	279524
#
# Disc length: 3742 seconds
#
# Revision: 1
# Processed by: cddbd v1.5.2PL0 Copyright (c) Steve Scherf et al.
# Submitted via: audiograbber 1.83.01
#
DISCID=f00e9b30
DTITLE=Westar Music - WSR113
DYEAR=2001
DGENRE=Country
TTITLE0=Flatbed Shuffle
TTITLE1=Country Pickin
TTITLE2=Roadhouse Stomp
TTITLE3=One Step Back
TTITLE4=Country Boogie
TTITLE5=Wasting Away
TTITLE6=Cowgirls Farewell
TTITLE7=Still Nuts Over You
TTITLE8=Sunset Waltz
TTITLE9=One Last Dance
TTITLE10=Move a Little Closer
TTITLE11=Wandering Heart
TTITLE12=Flatbed Shuffle
TTITLE13=Country Pickin
TTITLE14=Roadhouse Stomp
TTITLE15=One Step Back
TTITLE16=Country Boogie
TTITLE17=Wasting Away
TTITLE18=Cowgirls Farewell
TTITLE19=Still Nuts Over You
TTITLE20=Sunset Waltz
TTITLE21=One Last Dance
TTITLE22=Move a Little Closer
TTITLE23=Wandering Heart
TTITLE24=Flatbed Shuffle
TTITLE25=Country Pickin
TTITLE26=Roadhouse Stomp
TTITLE27=One Step Back
TTITLE28=Country Boogie
TTITLE29=Wasting Away
TTITLE30=Cowgirls Farewell
TTITLE31=Still Nuts Over You
TTITLE32=Sunset Waltz
TTITLE33=One Last Dance
TTITLE34=Move a Little Closer
TTITLE35=Wandering Heart
TTITLE36=Flatbed Shuffle
TTITLE37=Country Pickin
TTITLE38=Roadhouse Stomp
TTITLE39=One Step Back
TTITLE40=Country Boogie
TTITLE41=Wasting Away
TTITLE42=Cowgirls Farewell
TTITLE43=Still Nuts Over You
TTITLE44=Sunset Waltz
TTITLE45=One Last Dance
TTITLE46=Move a Little Closer
TTITLE47=Wandering Heart
EXTD=Step Out with this Variety of Country and Western Dance Tunes\nAll Music P
EXTD=ublished by Westar Music Publishing (SOCAN) and Westar Two Publishing (SOC
EXTD=AN)
EXTT0=Driving, Steady, Freewheeling
EXTT1=Nimble, Upbeat, Energetic
EXTT2=Bold, Dynamic, Solid
EXTT3=Inviting, Expressive, Determined
EXTT4=Smooth, Rolling Shuffle
EXTT5=Plaintive, Yearning, Lonely
EXTT6=Bittersweet, Resigned, Melancholy
EXTT7=Romantic, Nostalgic, Warm
EXTT8=Comforting, Mellow, Reflective
EXTT9=Soothing and Smooth
EXTT10=Sentimental, Warm, Expressive
EXTT11=Sad, Sweeping Ballad
EXTT12=Driving, Steady, Freewheeling
EXTT13=Nimble, Upbeat, Energetic
EXTT14=Bold, Dynamic, Solid
EXTT15=Inviting, Expressive, Determined
EXTT16=Smooth, Rolling Shuffle
EXTT17=Plaintive, Yearning, Lonely
EXTT18=Bittersweet, Resigned, Melancholy
EXTT19=Romantic, Nostalgic, Warm
EXTT20=Comforting, Mellow, Reflective
EXTT21=Soothing and Smooth
EXTT22=Sentimental, Warm, Expressive
EXTT23=Sad, Sweeping Ballad
EXTT24=Driving, Steady, Freewheeling
EXTT25=Nimble, Upbeat, Energetic
EXTT26=Bold, Dynamic, Solid
EXTT27=Inviting, Expressive, Determined
EXTT28=Smooth, Rolling Shuffle
EXTT29=Plaintive, Yearning, Lonely
EXTT30=Bittersweet, Resigned, Melancholy
EXTT31=Romantic, Nostalgic, Warm
EXTT32=Comforting, Mellow, Reflective
EXTT33=Soothing and Smooth
EXTT34=Sentimental, Warm, Expressive
EXTT35=Sad, Sweeping Ballad
EXTT36=Driving, Steady, Freewheeling
EXTT37=Nimble, Upbeat, Energetic
EXTT38=Bold, Dynamic, Solid
EXTT39=Inviting, Expressive, Determined
EXTT40=Smooth, Rolling Shuffle
EXTT41=Plaintive, Yearning, Lonely
EXTT42=Bittersweet, Resigned, Melancholy
EXTT43=Romantic, Nostalgic, Warm
EXTT44=Comforting, Mellow, Reflective
EXTT45=Soothing and Smooth
EXTT46=Sentimental, Warm, Expressive
EXTT47=Sad, Sweeping Ballad
PLAYORDER=
